<svg width="1156" height="222" viewBox="0 0 1156 222" fill="none" xmlns="http://www.w3.org/2000/svg">
<path fill-rule="evenodd" clip-rule="evenodd" d="M398.485 5.08248C387.528 1.69416 377.355 0 367.178 0C348.395 0 331.179 5.08248 315.526 13.5528C299.873 22.8699 288.133 35.5753 279.523 52.5159C270.913 69.4564 267 88.0911 267 110.114C267 132.136 271.697 150.771 280.307 167.711C288.913 184.652 301.436 197.358 316.306 206.675C331.179 215.992 347.612 221.075 366.399 221.075C383.615 221.075 399.268 217.686 413.358 209.216C427.444 201.593 438.401 189.735 447.011 173.641C455.621 157.547 459.534 138.913 459.534 116.89V107.573C459.534 106.39 459.535 105.023 459.536 103.559L459.537 101.803C459.538 99.8439 458.071 98.2556 456.26 98.2556H375.139C373.329 98.2556 371.862 99.8437 371.862 101.803V132.825C371.862 134.784 373.329 136.372 375.139 136.372H412.164C413.5 136.372 414.525 137.657 414.284 139.078C413.509 143.653 412.417 147.807 411.008 151.618C407.878 160.935 402.398 166.865 394.571 171.947C387.528 176.182 378.139 178.723 366.399 178.723C357.005 178.723 347.612 175.335 339.785 170.253C331.179 164.324 324.916 156.7 320.219 146.536C315.526 136.372 313.176 124.513 313.176 110.961C313.176 97.4082 315.526 85.5502 320.219 75.3857C324.916 65.2213 331.179 56.751 339.785 51.669C348.395 45.7397 357.789 43.1987 367.962 43.1987C377.355 43.1987 386.745 45.7397 394.571 49.9749C401.528 53.7392 407.868 60.1803 413.038 68.1082C414.105 69.745 416.188 70.2161 417.717 69.0875L446.834 47.6018C448.255 46.5528 448.693 44.4873 447.756 42.9253C442.406 34.0018 435.247 26.4697 427.444 20.3289C418.051 13.5528 409.445 8.47028 398.485 5.08248ZM649.164 11.94L684.089 1.98452C686.168 1.39206 688.202 3.08862 688.202 5.41473V214.139C688.202 216.098 686.734 217.686 684.924 217.686H649.999C648.188 217.686 646.721 216.098 646.721 214.139V15.3702C646.721 13.7591 647.724 12.3503 649.164 11.94ZM1061.17 99.9487C1066.65 96.5606 1072.12 94.8665 1078.39 94.8665C1085.43 94.8665 1090.91 97.4077 1095.6 99.9487C1100.3 102.49 1104.21 107.572 1107.34 114.348C1110.47 121.124 1112.04 128.748 1112.04 138.065C1112.04 147.382 1110.47 155.005 1107.34 161.782C1105 168.558 1101.08 173.64 1095.6 177.028C1090.91 180.416 1084.65 182.11 1078.39 182.11C1072.12 182.11 1065.86 180.416 1061.17 177.028C1056.47 173.64 1052.56 168.558 1049.43 161.782C1046.3 155.005 1044.73 147.382 1044.73 138.065C1044.73 128.748 1046.3 121.124 1049.43 114.348C1051.78 108.419 1055.69 103.337 1061.17 99.9487ZM1117.52 65.2205C1106.56 58.4443 1093.26 55.0561 1078.39 55.0561C1064.3 55.0561 1050.99 58.4443 1039.25 65.2205C1027.51 71.9968 1018.9 82.1611 1011.86 94.8665C1004.82 107.572 1001.69 121.971 1001.69 138.065C1001.69 154.159 1005.6 168.558 1011.86 181.263C1018.12 193.969 1027.51 204.133 1039.25 210.909C1050.99 217.686 1064.3 221.074 1078.39 221.074C1092.47 221.074 1105.78 217.686 1117.52 210.909C1129.26 204.133 1137.87 193.969 1144.91 181.263C1151.96 168.558 1155.09 154.159 1155.09 138.065C1155.09 121.971 1151.17 107.572 1144.91 94.8665C1138.65 82.1611 1129.26 71.9968 1117.52 65.2205ZM821.283 201.54C821.593 201.003 822.492 201.25 822.492 201.883V214.14C822.492 216.099 823.96 217.687 825.77 217.687H860.694C862.504 217.687 863.971 216.099 863.971 214.14V63.6873C863.971 61.7283 862.504 60.1401 860.694 60.1401H825.77C823.96 60.1401 822.492 61.7283 822.492 63.6873V77.3206C822.492 78.4852 821.067 78.9734 820.411 78.0501C818.215 74.958 815.77 72.0853 813.099 69.4572C804.491 60.1401 792.751 55.905 778.663 55.905C766.141 55.905 755.183 59.2933 745.008 66.9168C735.617 73.6929 727.79 83.8573 722.312 96.5628C716.834 109.268 714.485 123.667 714.485 138.914C714.485 154.161 716.834 168.56 722.312 181.266C727.79 193.971 734.835 203.288 745.008 210.912C754.401 218.535 766.141 221.922 778.663 221.922C793.534 221.922 804.491 216.84 813.882 210.064C817.466 207.478 819.936 203.875 821.283 201.54ZM806.839 176.183C801.361 179.571 795.881 181.266 789.619 181.266C783.359 181.266 777.881 179.571 772.401 176.183C767.706 172.795 763.793 167.713 760.661 160.937C758.315 154.16 756.748 146.537 756.748 138.067C756.748 129.597 757.531 122.82 760.661 116.044C763.793 110.115 767.706 105.033 772.401 101.645C777.881 98.2564 783.359 96.5628 789.619 96.5628C795.881 96.5628 802.142 98.2564 806.839 101.645C811.534 105.033 815.447 109.268 818.579 116.044C820.927 121.973 822.492 129.597 822.492 138.067C822.492 146.537 821.709 154.16 818.579 160.937C815.447 167.713 811.534 172.795 806.839 176.183ZM955.051 94.8673C954.447 94.8673 953.958 95.3967 953.958 96.0497V156.7C953.958 171.099 959.436 178.723 970.395 178.723H982.77C984.58 178.723 986.048 180.311 986.048 182.27V214.139C986.048 216.098 984.58 217.686 982.77 217.686H964.916C948.48 217.686 935.175 212.604 926.565 202.439C917.174 192.276 912.477 177.876 912.477 159.241V96.0497C912.477 95.3967 911.988 94.8673 911.384 94.8673H887.168C884.922 94.8673 883.342 92.4778 884.065 90.1768L892.759 62.5427C893.211 61.1053 894.459 60.1388 895.862 60.1388H911.384C911.988 60.1388 912.477 59.6094 912.477 58.9564V16.553C912.477 14.9419 913.48 13.5332 914.92 13.1228L951.217 2.77663C952.602 2.38166 953.958 3.5127 953.958 5.06344V58.9564C953.958 59.6094 954.447 60.1388 955.051 60.1388H983.655C985.901 60.1388 987.481 62.5282 986.757 64.8293L978.064 92.4633C977.611 93.9008 976.364 94.8673 974.961 94.8673H955.051ZM551.556 55.0561C565.642 55.0561 577.382 58.4444 587.557 65.2205C597.732 71.9967 606.34 82.1611 611.818 94.8665C618.08 107.572 620.428 121.972 620.428 138.065V145.529C620.428 147.488 618.961 149.077 617.151 149.077H524.265C522.94 149.077 521.917 150.344 522.145 151.757C522.828 155.996 523.792 159.72 524.943 162.629C528.076 169.405 531.99 174.487 536.682 177.028C541.379 179.569 547.643 182.11 555.469 182.11C562.512 182.11 569.556 180.416 574.252 177.875C578.78 175.775 582.772 171.94 586.23 167.325C587.42 165.737 589.578 165.41 591.045 166.698L614.847 187.582C616.215 188.784 616.468 190.947 615.352 192.423C608.681 201.253 600.656 207.98 590.687 212.604C579.73 217.686 567.989 220.227 555.469 220.227C540.596 220.227 527.293 216.839 515.553 210.062C503.813 203.286 495.203 193.122 488.944 180.416C482.68 167.711 479.55 153.312 479.55 137.218C479.55 121.124 482.68 106.725 488.944 94.0197C495.203 81.3143 503.813 71.9967 514.77 64.3737C525.726 58.4444 537.466 55.0561 551.556 55.0561ZM525.187 119.431C523.809 119.431 522.772 118.065 523.099 116.616C524.472 110.522 526.463 105.532 528.856 101.643C533.553 94.0192 541.379 89.7846 551.556 89.7846C560.946 89.7846 568.772 94.0192 573.469 101.643C575.808 105.441 577.758 110.5 579.127 116.612C579.453 118.063 578.416 119.431 577.036 119.431H525.187Z" fill="#FF3B57"/>
<rect width="222" height="222" rx="25" fill="#FF3B57"/>
<path d="M73.7108 105.861C66.5349 103.477 64.1456 107.727 66.0538 110.979L110.141 191.643C110.725 192.946 112.488 192.949 113.078 191.649L157.328 102.559C158.79 98.8131 157.998 96.4586 154.407 94.7411C148.291 91.8163 141.3 92.4516 136.198 93.4007C128.225 94.8835 123.136 96.4048 116.081 98.9938C115.1 99.3536 108.995 101.919 107.605 102.54C106.214 103.162 96.6084 107.654 89.5244 107.81C82.4404 107.966 79.173 107.675 73.7108 105.861Z" fill="white"/>
<path d="M155.811 80.01C156.11 83.6617 156.126 86.9598 151.907 85.865C147.688 84.7702 140.953 84.4005 133.439 85.7951C125.581 87.2535 119.215 89.3973 116.11 90.7844C109.669 93.6618 108.497 94.0733 103.515 96.3511C98.107 98.8242 93.7948 100.152 87.1914 100.344C83.7901 100.442 76.8688 100.456 71.0614 94.7302C71.0614 94.7302 67.6435 91.3875 67.0742 84.7951C66.8415 82.1014 66.7015 82.0175 66.7254 78.7338C66.9066 53.7781 86.8758 33.5634 111.173 33.7398C135.47 33.9162 153.612 53.1663 155.811 80.01Z" fill="white"/>
</svg>
